<svg xmlns="http://www.w3.org/2000/svg" width="16" height="16" viewBox="0 0 16 16">
    <g fill="none" fill-rule="evenodd">
        <g fill="#F68B1E">
            <g>
                <g>
                    <g>
                        <path d="M8 1C4.118 1 1 4.118 1 8s3.118 7 7 7 7-3.118 7-7-3.118-7-7-7zm0 12.727c-3.182 0-5.727-2.545-5.727-5.727 0-3.182 2.545-5.727 5.727-5.727 3.182 0 5.727 2.545 5.727 5.727 0 3.182-2.545 5.727-5.727 5.727zm2.355-4.263c.254.254.254.636 0 .89-.128.128-.255.191-.446.191-.19 0-.318-.063-.445-.19l-1.91-1.91c-.127-.127-.19-.254-.19-.445V4.182c0-.382.254-.637.636-.637s.636.255.636.637v3.563l1.719 1.719z" transform="translate(-32 -153) translate(16 142) translate(16) translate(0 11)"/>
                    </g>
                </g>
            </g>
        </g>
    </g>
</svg>
