<?xml version="1.0" encoding="UTF-8"?>
<svg viewBox="0 0 32 32" xmlns="http://www.w3.org/2000/svg" xmlns:xlink="http://www.w3.org/1999/xlink">
<defs>
<circle id="a" cx="16" cy="16" r="16"/>
<path id="d" d="M18 17v2c0 .6-.4 1-1 1s-1-.4-1-1v-2c0-1.7-1.3-3-3-3H5c-1.7 0-3 1.3-3 3v2c0 .6-.4 1-1 1s-1-.4-1-1v-2c0-2.8 2.2-5 5-5h8c2.8 0 5 2.2 5 5zM4 5c0-2.8 2.2-5 5-5s5 2.2 5 5-2.2 5-5 5-5-2.2-5-5zm2 0c0 1.7 1.3 3 3 3s3-1.3 3-3-1.3-3-3-3-3 1.3-3 3z"/>
</defs>
<g fill="none" fill-rule="evenodd">
<mask id="e" fill="#fff">
<use xlink:href="#a"/>
</mask>
<use fill="#FAFAFA" xlink:href="#a"/>
<g mask="url(#e)">
<use transform="translate(7 5)" fill="#F68B1E" fill-rule="nonzero" xlink:href="#d"/>
</g>
</g>
</svg>
